<svg width="50" height="50" viewBox="0 0 50 50" fill="none" xmlns="http://www.w3.org/2000/svg">
<path d="M35.9375 3.125H14.0625C12.4055 3.12681 10.8168 3.78587 9.64508 4.95758C8.47337 6.12929 7.81431 7.71795 7.8125 9.375V40.625C7.81431 42.282 8.47337 43.8707 9.64508 45.0424C10.8168 46.2141 12.4055 46.8732 14.0625 46.875H35.9375C37.5945 46.8732 39.1832 46.2141 40.3549 45.0424C41.5266 43.8707 42.1857 42.282 42.1875 40.625V9.375C42.1857 7.71795 41.5266 6.12929 40.3549 4.95758C39.1832 3.78587 37.5945 3.12681 35.9375 3.125ZM25 29.6875H17.1875C16.7731 29.6875 16.3757 29.5229 16.0826 29.2299C15.7896 28.9368 15.625 28.5394 15.625 28.125C15.625 27.7106 15.7896 27.3132 16.0826 27.0201C16.3757 26.7271 16.7731 26.5625 17.1875 26.5625H25C25.4144 26.5625 25.8118 26.7271 26.1049 27.0201C26.3979 27.3132 26.5625 27.7106 26.5625 28.125C26.5625 28.5394 26.3979 28.9368 26.1049 29.2299C25.8118 29.5229 25.4144 29.6875 25 29.6875ZM32.8125 21.875H17.1875C16.7731 21.875 16.3757 21.7104 16.0826 21.4174C15.7896 21.1243 15.625 20.7269 15.625 20.3125C15.625 19.8981 15.7896 19.5007 16.0826 19.2076C16.3757 18.9146 16.7731 18.75 17.1875 18.75H32.8125C33.2269 18.75 33.6243 18.9146 33.9174 19.2076C34.2104 19.5007 34.375 19.8981 34.375 20.3125C34.375 20.7269 34.2104 21.1243 33.9174 21.4174C33.6243 21.7104 33.2269 21.875 32.8125 21.875ZM32.8125 14.0625H17.1875C16.7731 14.0625 16.3757 13.8979 16.0826 13.6049C15.7896 13.3118 15.625 12.9144 15.625 12.5C15.625 12.0856 15.7896 11.6882 16.0826 11.3951C16.3757 11.1021 16.7731 10.9375 17.1875 10.9375H32.8125C33.2269 10.9375 33.6243 11.1021 33.9174 11.3951C34.2104 11.6882 34.375 12.0856 34.375 12.5C34.375 12.9144 34.2104 13.3118 33.9174 13.6049C33.6243 13.8979 33.2269 14.0625 32.8125 14.0625Z" fill="#F38D2E"/>
</svg>
