<svg width="50" height="50" viewBox="0 0 50 50" fill="none" xmlns="http://www.w3.org/2000/svg">
<g clip-path="url(#clip0_195_1516)">
<path d="M43.7501 17.9492V5.9375C43.7519 5.3632 43.6403 4.79421 43.4216 4.26317C43.2029 3.73213 42.8815 3.24951 42.4758 2.84301C42.0701 2.43651 41.5882 2.11413 41.0576 1.89439C40.527 1.67464 39.9582 1.56186 39.3839 1.5625H27.379C26.5918 1.56412 25.837 1.87607 25.2784 2.43067L1.27841 26.4238C0.459875 27.245 0.000244141 28.3572 0.000244141 29.5166C0.000244141 30.6761 0.459875 31.7882 1.27841 32.6094L12.7042 44.0352C13.5251 44.8539 14.6371 45.3136 15.7965 45.3136C16.9558 45.3136 18.0679 44.8539 18.8888 44.0352L42.8819 20.0498C43.4367 19.4913 43.7487 18.7364 43.7501 17.9492ZM34.3751 14.0625C33.757 14.0625 33.1528 13.8792 32.6389 13.5358C32.125 13.1925 31.7245 12.7044 31.488 12.1334C31.2514 11.5624 31.1896 10.934 31.3101 10.3278C31.4307 9.72165 31.7283 9.16483 32.1654 8.72779C32.6024 8.29076 33.1592 7.99313 33.7654 7.87255C34.3716 7.75197 35 7.81386 35.571 8.05038C36.142 8.2869 36.6301 8.68744 36.9734 9.20135C37.3168 9.71525 37.5001 10.3194 37.5001 10.9375C37.5001 11.7663 37.1709 12.5612 36.5848 13.1472C35.9988 13.7333 35.2039 14.0625 34.3751 14.0625Z" fill="#272727"/>
<path d="M48.4375 6.25C48.0231 6.25 47.6256 6.41462 47.3326 6.70765C47.0396 7.00067 46.875 7.3981 46.875 7.8125V20.251L21.3564 45.7705C21.2052 45.9142 21.0843 46.0866 21.0008 46.2777C20.9173 46.4688 20.8729 46.6747 20.8702 46.8833C20.8676 47.0918 20.9067 47.2988 20.9853 47.492C21.0638 47.6852 21.1803 47.8607 21.3278 48.0081C21.4752 48.1556 21.6507 48.2721 21.8439 48.3506C22.0371 48.4292 22.2441 48.4683 22.4526 48.4657C22.6612 48.463 22.8671 48.4186 23.0582 48.3351C23.2493 48.2516 23.4217 48.1307 23.5654 47.9795L49.1513 22.3936C49.4235 22.1201 49.6387 21.7954 49.7843 21.4381C49.93 21.0809 50.0033 20.6983 50 20.3125V7.8125C50 7.3981 49.8353 7.00067 49.5423 6.70765C49.2493 6.41462 48.8519 6.25 48.4375 6.25Z" fill="#272727"/>
</g>
<defs>
<clipPath id="clip0_195_1516">
<rect width="50" height="50" fill="white"/>
</clipPath>
</defs>
</svg>
