<svg width="36" height="36" viewBox="0 0 36 36" fill="none" xmlns="http://www.w3.org/2000/svg">
<circle cx="18" cy="18" r="18" fill="#23A45A"/>
<path d="M22.7465 25.8749C22.0603 25.8749 21.0963 25.6267 19.6528 24.8202C17.8974 23.8359 16.5397 22.9271 14.7939 21.1858C13.1106 19.5036 12.2914 18.4144 11.145 16.3282C9.84983 13.9728 10.0706 12.7381 10.3174 12.2104C10.6113 11.5797 11.0451 11.2025 11.6059 10.828C11.9244 10.6194 12.2614 10.4405 12.6128 10.2937C12.6479 10.2786 12.6806 10.2641 12.7098 10.2511C12.8838 10.1727 13.1475 10.0543 13.4815 10.1808C13.7044 10.2645 13.9033 10.4357 14.2148 10.7433C14.8536 11.3733 15.7265 12.7764 16.0486 13.4655C16.2648 13.9299 16.4079 14.2364 16.4082 14.5803C16.4082 14.9828 16.2057 15.2932 15.96 15.6283C15.9139 15.6912 15.8682 15.7513 15.8239 15.8097C15.5564 16.1612 15.4977 16.2628 15.5364 16.4443C15.6148 16.8088 16.1994 17.8941 17.1602 18.8528C18.121 19.8115 19.175 20.3593 19.541 20.4373C19.7301 20.4777 19.8339 20.4166 20.1967 20.1395C20.2487 20.0998 20.3021 20.0587 20.358 20.0175C20.7328 19.7387 21.0288 19.5415 21.4219 19.5415H21.424C21.766 19.5415 22.0589 19.6899 22.544 19.9346C23.1769 20.2538 24.6221 21.1155 25.256 21.755C25.5643 22.0657 25.7362 22.264 25.8203 22.4866C25.9468 22.8216 25.8276 23.0842 25.7499 23.26C25.7369 23.2892 25.7225 23.3212 25.7074 23.3567C25.5594 23.7074 25.3795 24.0437 25.1699 24.3614C24.7962 24.9204 24.4175 25.3532 23.7854 25.6475C23.4608 25.801 23.1056 25.8788 22.7465 25.8749Z" fill="white"/>
</svg>
