<svg width="50" height="50" viewBox="0 0 50 50" fill="none" xmlns="http://www.w3.org/2000/svg">
<path d="M46.875 12.5C46.875 10.8424 46.2165 9.25266 45.0444 8.08056C43.8723 6.90846 42.2826 6.24998 40.625 6.24998H39.0625V4.73142C39.0625 3.8906 38.416 3.16892 37.5752 3.12693C37.3639 3.11675 37.1528 3.14957 36.9546 3.2234C36.7564 3.29723 36.5752 3.41054 36.4221 3.55645C36.269 3.70236 36.1471 3.87783 36.0638 4.07225C35.9805 4.26667 35.9375 4.47597 35.9375 4.68748V6.24998H14.0625V4.73142C14.0625 3.8906 13.416 3.16892 12.5752 3.12693C12.3639 3.11675 12.1528 3.14957 11.9546 3.2234C11.7564 3.29723 11.5752 3.41054 11.4221 3.55645C11.269 3.70236 11.1471 3.87783 11.0638 4.07225C10.9805 4.26667 10.9375 4.47597 10.9375 4.68748V6.24998H9.375C7.7174 6.24998 6.12769 6.90846 4.95558 8.08056C3.78348 9.25266 3.125 10.8424 3.125 12.5V13.6719C3.125 13.7755 3.16616 13.8748 3.23941 13.9481C3.31267 14.0213 3.41202 14.0625 3.51562 14.0625H46.4844C46.588 14.0625 46.6873 14.0213 46.7606 13.9481C46.8338 13.8748 46.875 13.7755 46.875 13.6719V12.5ZM3.125 40.625C3.125 42.2826 3.78348 43.8723 4.95558 45.0444C6.12769 46.2165 7.7174 46.875 9.375 46.875H40.625C42.2826 46.875 43.8723 46.2165 45.0444 45.0444C46.2165 43.8723 46.875 42.2826 46.875 40.625V17.4804C46.875 17.4027 46.8441 17.3282 46.7892 17.2733C46.7342 17.2183 46.6597 17.1875 46.582 17.1875H3.41797C3.34027 17.1875 3.26575 17.2183 3.21081 17.2733C3.15587 17.3282 3.125 17.4027 3.125 17.4804V40.625ZM36.7188 20.3125C37.1823 20.3125 37.6354 20.4499 38.0209 20.7075C38.4063 20.965 38.7067 21.3311 38.8841 21.7593C39.0615 22.1876 39.1079 22.6588 39.0175 23.1135C38.927 23.5681 38.7038 23.9857 38.376 24.3135C38.0483 24.6413 37.6306 24.8645 37.176 24.9549C36.7213 25.0454 36.2501 24.999 35.8218 24.8216C35.3936 24.6442 35.0275 24.3438 34.77 23.9583C34.5125 23.5729 34.375 23.1198 34.375 22.6562C34.375 22.0346 34.6219 21.4385 35.0615 20.9989C35.501 20.5594 36.0971 20.3125 36.7188 20.3125ZM36.7188 28.125C37.1823 28.125 37.6354 28.2624 38.0209 28.52C38.4063 28.7775 38.7067 29.1436 38.8841 29.5718C39.0615 30.0001 39.1079 30.4713 39.0175 30.926C38.927 31.3806 38.7038 31.7982 38.376 32.126C38.0483 32.4538 37.6306 32.677 37.176 32.7674C36.7213 32.8579 36.2501 32.8115 35.8218 32.6341C35.3936 32.4567 35.0275 32.1563 34.77 31.7708C34.5125 31.3854 34.375 30.9323 34.375 30.4687C34.375 29.8471 34.6219 29.251 35.0615 28.8115C35.501 28.3719 36.0971 28.125 36.7188 28.125ZM28.9062 20.3125C29.3698 20.3125 29.8229 20.4499 30.2084 20.7075C30.5938 20.965 30.8942 21.3311 31.0716 21.7593C31.249 22.1876 31.2954 22.6588 31.205 23.1135C31.1145 23.5681 30.8913 23.9857 30.5635 24.3135C30.2358 24.6413 29.8181 24.8645 29.3635 24.9549C28.9088 25.0454 28.4376 24.999 28.0093 24.8216C27.5811 24.6442 27.215 24.3438 26.9575 23.9583C26.7 23.5729 26.5625 23.1198 26.5625 22.6562C26.5625 22.0346 26.8094 21.4385 27.249 20.9989C27.6885 20.5594 28.2846 20.3125 28.9062 20.3125ZM28.9062 28.125C29.3698 28.125 29.8229 28.2624 30.2084 28.52C30.5938 28.7775 30.8942 29.1436 31.0716 29.5718C31.249 30.0001 31.2954 30.4713 31.205 30.926C31.1145 31.3806 30.8913 31.7982 30.5635 32.126C30.2358 32.4538 29.8181 32.677 29.3635 32.7674C28.9088 32.8579 28.4376 32.8115 28.0093 32.6341C27.5811 32.4567 27.215 32.1563 26.9575 31.7708C26.7 31.3854 26.5625 30.9323 26.5625 30.4687C26.5625 29.8471 26.8094 29.251 27.249 28.8115C27.6885 28.3719 28.2846 28.125 28.9062 28.125ZM28.9062 35.9375C29.3698 35.9375 29.8229 36.0749 30.2084 36.3325C30.5938 36.59 30.8942 36.9561 31.0716 37.3843C31.249 37.8126 31.2954 38.2838 31.205 38.7385C31.1145 39.1931 30.8913 39.6107 30.5635 39.9385C30.2358 40.2663 29.8181 40.4895 29.3635 40.5799C28.9088 40.6704 28.4376 40.624 28.0093 40.4466C27.5811 40.2692 27.215 39.9688 26.9575 39.5833C26.7 39.1979 26.5625 38.7448 26.5625 38.2812C26.5625 37.6596 26.8094 37.0635 27.249 36.624C27.6885 36.1844 28.2846 35.9375 28.9062 35.9375ZM21.0938 28.125C21.5573 28.125 22.0104 28.2624 22.3959 28.52C22.7813 28.7775 23.0817 29.1436 23.2591 29.5718C23.4365 30.0001 23.4829 30.4713 23.3925 30.926C23.302 31.3806 23.0788 31.7982 22.751 32.126C22.4233 32.4538 22.0056 32.677 21.551 32.7674C21.0963 32.8579 20.6251 32.8115 20.1968 32.6341C19.7686 32.4567 19.4025 32.1563 19.145 31.7708C18.8875 31.3854 18.75 30.9323 18.75 30.4687C18.75 29.8471 18.9969 29.251 19.4365 28.8115C19.876 28.3719 20.4721 28.125 21.0938 28.125ZM21.0938 35.9375C21.5573 35.9375 22.0104 36.0749 22.3959 36.3325C22.7813 36.59 23.0817 36.9561 23.2591 37.3843C23.4365 37.8126 23.4829 38.2838 23.3925 38.7385C23.302 39.1931 23.0788 39.6107 22.751 39.9385C22.4233 40.2663 22.0056 40.4895 21.551 40.5799C21.0963 40.6704 20.6251 40.624 20.1968 40.4466C19.7686 40.2692 19.4025 39.9688 19.145 39.5833C18.8875 39.1979 18.75 38.7448 18.75 38.2812C18.75 37.6596 18.9969 37.0635 19.4365 36.624C19.876 36.1844 20.4721 35.9375 21.0938 35.9375ZM13.2812 28.125C13.7448 28.125 14.1979 28.2624 14.5834 28.52C14.9688 28.7775 15.2692 29.1436 15.4466 29.5718C15.624 30.0001 15.6704 30.4713 15.58 30.926C15.4895 31.3806 15.2663 31.7982 14.9385 32.126C14.6108 32.4538 14.1931 32.677 13.7385 32.7674C13.2839 32.8579 12.8126 32.8115 12.3843 32.6341C11.9561 32.4567 11.59 32.1563 11.3325 31.7708C11.075 31.3854 10.9375 30.9323 10.9375 30.4687C10.9375 29.8471 11.1844 29.251 11.624 28.8115C12.0635 28.3719 12.6596 28.125 13.2812 28.125ZM13.2812 35.9375C13.7448 35.9375 14.1979 36.0749 14.5834 36.3325C14.9688 36.59 15.2692 36.9561 15.4466 37.3843C15.624 37.8126 15.6704 38.2838 15.58 38.7385C15.4895 39.1931 15.2663 39.6107 14.9385 39.9385C14.6108 40.2663 14.1931 40.4895 13.7385 40.5799C13.2839 40.6704 12.8126 40.624 12.3843 40.4466C11.9561 40.2692 11.59 39.9688 11.3325 39.5833C11.075 39.1979 10.9375 38.7448 10.9375 38.2812C10.9375 37.6596 11.1844 37.0635 11.624 36.624C12.0635 36.1844 12.6596 35.9375 13.2812 35.9375Z" fill="#272727"/>
</svg>
