<svg width="50" height="50" viewBox="0 0 50 50" fill="none" xmlns="http://www.w3.org/2000/svg">
<path fill-rule="evenodd" clip-rule="evenodd" d="M40.501 9.4824C38.4786 7.45903 36.0759 5.85565 33.4314 4.76458C30.7868 3.6735 27.9526 3.11628 25.0918 3.12498C13.0859 3.12498 3.3125 12.8496 3.30762 24.8047C3.30231 28.6114 4.30576 32.3516 6.21582 35.6445L3.125 46.875L14.6729 43.8603C17.8694 45.592 21.4476 46.4983 25.083 46.4971H25.0918C37.0967 46.4971 46.8691 36.7715 46.875 24.8174C46.8823 21.9663 46.3225 19.1423 45.2282 16.5097C44.1339 13.877 42.527 11.4883 40.501 9.4824ZM25.0918 42.8379H25.084C21.8431 42.8388 18.6612 41.9715 15.8691 40.3262L15.208 39.9355L8.35547 41.7246L10.1846 35.0752L9.75391 34.3916C7.94178 31.5226 6.98169 28.198 6.98535 24.8047C6.98535 14.8701 15.1113 6.78709 25.0986 6.78709C29.8896 6.77853 34.4879 8.67335 37.8819 12.0548C41.276 15.4362 43.188 20.0273 43.1973 24.8183C43.1934 34.7539 35.0713 42.8379 25.0918 42.8379ZM35.0225 29.3428C34.4785 29.0713 31.7998 27.7607 31.3037 27.5801C30.8076 27.3994 30.4414 27.3086 30.0791 27.8515C29.7168 28.3945 28.6728 29.6094 28.3555 29.9756C28.0381 30.3418 27.7207 30.3818 27.1768 30.1103C26.6328 29.8388 24.8779 29.2676 22.7988 27.4219C21.1807 25.9853 20.0889 24.2119 19.7715 23.6699C19.4541 23.1279 19.7373 22.834 20.0098 22.5644C20.2549 22.3213 20.5537 21.9316 20.8262 21.6152C21.0986 21.2988 21.1895 21.0722 21.3701 20.7109C21.5508 20.3496 21.4609 20.0332 21.3252 19.7627C21.1895 19.4922 20.1006 16.8252 19.6475 15.7402C19.2051 14.6836 18.7568 14.8271 18.4229 14.8105C18.1055 14.7949 17.7393 14.791 17.3789 14.791C17.1034 14.7982 16.8324 14.862 16.5827 14.9787C16.333 15.0953 16.1101 15.2621 15.9277 15.4687C15.4287 16.0117 14.0225 17.3242 14.0225 19.9883C14.0225 22.6523 15.9756 25.2304 16.2451 25.5918C16.5146 25.9531 20.083 31.4248 25.543 33.7715C26.5568 34.2057 27.5928 34.5864 28.6465 34.9121C29.9502 35.3242 31.1367 35.2666 32.0742 35.1269C33.1201 34.9717 35.2969 33.8164 35.749 32.5508C36.2012 31.2851 36.2021 30.2012 36.0664 29.9756C35.9307 29.75 35.5674 29.6133 35.0225 29.3428Z" fill="#272727"/>
</svg>
