<svg width="36" height="36" viewBox="0 0 36 36" fill="none" xmlns="http://www.w3.org/2000/svg">
<circle cx="18" cy="18" r="18" fill="#23A45A"/>
<path d="M25.0312 10.6875H10.9688C10.745 10.6875 10.5304 10.7764 10.3721 10.9346C10.2139 11.0929 10.125 11.3075 10.125 11.5312V21.6562C10.125 21.88 10.2139 22.0946 10.3721 22.2529C10.5304 22.4111 10.745 22.5 10.9688 22.5H13.5V25.3125L17.6393 22.5H25.0312C25.255 22.5 25.4696 22.4111 25.6279 22.2529C25.7861 22.0946 25.875 21.88 25.875 21.6562V11.5312C25.875 11.3075 25.7861 11.0929 25.6279 10.9346C25.4696 10.7764 25.255 10.6875 25.0312 10.6875ZM14.625 17.7188C14.4025 17.7188 14.185 17.6528 14 17.5292C13.815 17.4055 13.6708 17.2298 13.5856 17.0243C13.5005 16.8187 13.4782 16.5925 13.5216 16.3743C13.565 16.156 13.6722 15.9556 13.8295 15.7983C13.9868 15.6409 14.1873 15.5338 14.4055 15.4904C14.6238 15.447 14.85 15.4692 15.0555 15.5544C15.2611 15.6395 15.4368 15.7837 15.5604 15.9687C15.684 16.1537 15.75 16.3712 15.75 16.5938C15.75 16.8921 15.6315 17.1783 15.4205 17.3892C15.2095 17.6002 14.9234 17.7188 14.625 17.7188ZM18 17.7188C17.7775 17.7188 17.56 17.6528 17.375 17.5292C17.19 17.4055 17.0458 17.2298 16.9606 17.0243C16.8755 16.8187 16.8532 16.5925 16.8966 16.3743C16.94 16.156 17.0472 15.9556 17.2045 15.7983C17.3618 15.6409 17.5623 15.5338 17.7805 15.4904C17.9988 15.447 18.225 15.4692 18.4305 15.5544C18.6361 15.6395 18.8118 15.7837 18.9354 15.9687C19.059 16.1537 19.125 16.3712 19.125 16.5938C19.125 16.8921 19.0065 17.1783 18.7955 17.3892C18.5845 17.6002 18.2984 17.7188 18 17.7188ZM21.375 17.7188C21.1525 17.7188 20.935 17.6528 20.75 17.5292C20.565 17.4055 20.4208 17.2298 20.3356 17.0243C20.2505 16.8187 20.2282 16.5925 20.2716 16.3743C20.315 16.156 20.4222 15.9556 20.5795 15.7983C20.7368 15.6409 20.9373 15.5338 21.1555 15.4904C21.3738 15.447 21.6 15.4692 21.8055 15.5544C22.0111 15.6395 22.1868 15.7837 22.3104 15.9687C22.434 16.1537 22.5 16.3712 22.5 16.5938C22.5 16.8921 22.3815 17.1783 22.1705 17.3892C21.9595 17.6002 21.6734 17.7188 21.375 17.7188Z" fill="white"/>
</svg>
