<svg width="56" height="57" viewBox="0 0 56 57" fill="none" xmlns="http://www.w3.org/2000/svg">
<path d="M41.4194 3H4.77698C3.79558 3 3 3.79558 3 4.77698V33.8009C3 34.7824 3.79558 35.5779 4.77698 35.5779H12.9736C15.0543 35.5779 16.9823 36.6696 18.0528 38.4536L26.08 51.8325C27.8122 54.7192 31.8919 54.9937 33.9949 52.3647C34.9862 51.1256 35.3057 49.4789 34.8496 47.9587L31.8217 37.8655C31.4796 36.7252 32.3334 35.5779 33.5237 35.5779H47.0735C50.979 35.5779 53.8156 31.864 52.7879 28.0962L47.1339 7.36473C46.4311 4.78776 44.0905 3 41.4194 3Z" stroke="black" stroke-width="5.06848" stroke-linecap="round"/>
<path d="M13.3657 35.5779V3" stroke="black" stroke-width="5.06848" stroke-linecap="round" stroke-linejoin="round"/>
</svg>
