<svg width="50" height="50" viewBox="0 0 50 50" fill="none" xmlns="http://www.w3.org/2000/svg">
<path d="M26.5626 45.3125C26.3539 45.3126 26.1473 45.2709 25.955 45.1898C25.7628 45.1087 25.5886 44.99 25.443 44.8405C25.2974 44.691 25.1831 44.5139 25.1071 44.3196C25.031 44.1252 24.9946 43.9176 25.0001 43.709V25.794C25.0001 25.5868 24.9178 25.3881 24.7713 25.2416C24.6248 25.095 24.4261 25.0127 24.2189 25.0127H6.29016C5.96152 25.0166 5.63973 24.9188 5.3689 24.7326C5.09808 24.5464 4.89149 24.2809 4.77746 23.9727C4.6476 23.6051 4.65985 23.2022 4.81181 22.8432C4.96377 22.4842 5.24445 22.1949 5.59875 22.0323L43.0987 4.83012C43.3885 4.69737 43.7119 4.65639 44.0255 4.71267C44.3392 4.76894 44.6282 4.91979 44.8537 5.14498C45.0792 5.37016 45.2304 5.65891 45.2872 5.97251C45.3439 6.28611 45.3033 6.60955 45.171 6.89946L27.9835 44.3995C27.8591 44.6718 27.659 44.9027 27.4071 45.0645C27.1552 45.2264 26.8621 45.3125 26.5626 45.3125Z" fill="black"/>
</svg>
