<svg width="56" height="57" viewBox="0 0 56 57" fill="none" xmlns="http://www.w3.org/2000/svg">
<path d="M41.4194 54.1781H4.77698C3.79558 54.1781 3 53.3826 3 52.4011V23.3771C3 22.3957 3.79558 21.6002 4.77698 21.6002H12.9736C15.0543 21.6002 16.9823 20.5085 18.0528 18.7244L26.08 5.34559C27.8122 2.45881 31.8919 2.18438 33.9949 4.81324C34.9862 6.05236 35.3057 7.69932 34.8496 9.21925L31.8217 19.3126C31.4796 20.4527 32.3334 21.6002 33.5237 21.6002H47.0735C50.979 21.6002 53.8156 25.314 52.7879 29.0818L47.1339 49.8132C46.4311 52.3904 44.0905 54.1781 41.4194 54.1781Z" stroke="black" stroke-width="5.06848" stroke-linecap="round"/>
<path d="M13.3657 54.1778V21.5999" stroke="black" stroke-width="5.06848" stroke-linecap="round" stroke-linejoin="round"/>
</svg>
