<svg width="50" height="50" viewBox="0 0 50 50" fill="none" xmlns="http://www.w3.org/2000/svg">
<path d="M32.8125 18.75H36.7188C37.7548 18.75 38.7483 19.1616 39.4809 19.8941C40.2134 20.6267 40.625 21.6202 40.625 22.6562V41.4062C40.625 42.4423 40.2134 43.4358 39.4809 44.1684C38.7483 44.9009 37.7548 45.3125 36.7188 45.3125H13.2812C12.2452 45.3125 11.2517 44.9009 10.5191 44.1684C9.78655 43.4358 9.375 42.4423 9.375 41.4062V22.6562C9.375 21.6202 9.78655 20.6267 10.5191 19.8941C11.2517 19.1616 12.2452 18.75 13.2812 18.75H17.1875M32.8125 12.5L25 4.6875M25 4.6875L17.1875 12.5M25 4.6875V31.3477" stroke="black" stroke-width="3" stroke-linecap="round" stroke-linejoin="round"/>
</svg>
