<svg width="15" height="16" viewBox="0 0 15 16" fill="none" xmlns="http://www.w3.org/2000/svg">
<path d="M7.5 1.73047C4.13467 1.73047 1.40625 4.45889 1.40625 7.82422C1.40625 11.1843 4.14023 13.918 7.5 13.918C10.865 13.918 13.5938 11.1893 13.5938 7.82422C13.5938 4.46416 10.8601 1.73047 7.5 1.73047ZM10.6641 8.76172H7.14844C7.11736 8.76172 7.08755 8.74937 7.06557 8.7274C7.0436 8.70542 7.03125 8.67561 7.03125 8.64453V3.72266C7.03125 3.69158 7.0436 3.66177 7.06557 3.63979C7.08755 3.61782 7.11736 3.60547 7.14844 3.60547H7.85156C7.88264 3.60547 7.91245 3.61782 7.93443 3.63979C7.9564 3.66177 7.96875 3.69158 7.96875 3.72266V7.82422H10.6641C10.6951 7.82422 10.7249 7.83657 10.7469 7.85854C10.7689 7.88052 10.7812 7.91033 10.7812 7.94141V8.64453C10.7812 8.67561 10.7689 8.70542 10.7469 8.7274C10.7249 8.74937 10.6951 8.76172 10.6641 8.76172Z" fill="#F38D2E"/>
</svg>
