<svg width="50" height="50" viewBox="0 0 50 50" fill="none" xmlns="http://www.w3.org/2000/svg">
<path d="M38.1836 46.8749C36.2774 46.8749 33.5997 46.1855 29.5899 43.9453C24.7139 41.2109 20.9424 38.6865 16.0928 33.8496C11.417 29.1767 9.14165 26.1513 5.95708 20.3564C2.35943 13.8134 2.97271 10.3837 3.65826 8.91792C4.47466 7.16596 5.67974 6.11811 7.23736 5.07807C8.12208 4.49842 9.05833 4.00153 10.0342 3.5937C10.1319 3.55171 10.2227 3.51167 10.3038 3.47553C10.7872 3.25776 11.5196 2.92866 12.4473 3.28022C13.0665 3.51264 13.6192 3.98823 14.4844 4.84272C16.2588 6.59272 18.6836 10.4902 19.5782 12.4042C20.1788 13.6943 20.5762 14.5458 20.5772 15.5009C20.5772 16.6191 20.0147 17.4814 19.3321 18.4121C19.2042 18.5869 19.0772 18.7539 18.9542 18.916C18.211 19.8925 18.0479 20.1748 18.1553 20.6787C18.3731 21.6914 19.9971 24.706 22.6661 27.3691C25.335 30.0322 28.2627 31.5537 29.2793 31.7705C29.8047 31.8828 30.0928 31.7128 31.1006 30.9433C31.2452 30.833 31.3936 30.7187 31.5489 30.6044C32.5899 29.83 33.4122 29.2822 34.504 29.2822H34.5098C35.46 29.2822 36.2735 29.6943 37.6211 30.374C39.379 31.2607 43.3936 33.6542 45.1543 35.4306C46.0108 36.2939 46.4883 36.8447 46.7217 37.4628C47.0733 38.3935 46.7422 39.123 46.5264 39.6113C46.4903 39.6923 46.4502 39.7812 46.4083 39.8798C45.9972 40.854 45.4974 41.7883 44.9151 42.6708C43.877 44.2236 42.8252 45.4257 41.0694 46.2431C40.1677 46.6696 39.181 46.8856 38.1836 46.8749Z" fill="black"/>
</svg>
