<svg width="40" height="41" viewBox="0 0 40 41" fill="none" xmlns="http://www.w3.org/2000/svg">
<path d="M36.25 20.7871C36.25 11.8129 28.9742 4.53711 20 4.53711C11.0258 4.53711 3.75 11.8129 3.75 20.7871C3.75 29.7613 11.0258 37.0371 20 37.0371C28.9742 37.0371 36.25 29.7613 36.25 20.7871ZM19.6367 27.9246C19.5202 27.809 19.4275 27.6715 19.3641 27.5201C19.3006 27.3687 19.2676 27.2063 19.267 27.0421C19.2663 26.8779 19.298 26.7152 19.3603 26.5633C19.4225 26.4114 19.514 26.2732 19.6297 26.1566L23.7172 22.0371H13.2812C12.9497 22.0371 12.6318 21.9054 12.3974 21.671C12.1629 21.4366 12.0312 21.1186 12.0312 20.7871C12.0312 20.4556 12.1629 20.1376 12.3974 19.9032C12.6318 19.6688 12.9497 19.5371 13.2812 19.5371H23.7172L19.6297 15.4176C19.5141 15.3009 19.4225 15.1626 19.3604 15.0106C19.2982 14.8586 19.2665 14.6958 19.2673 14.5316C19.268 14.3673 19.3011 14.2048 19.3646 14.0534C19.4281 13.9019 19.5208 13.7645 19.6375 13.6488C19.7542 13.5332 19.8924 13.4417 20.0445 13.3795C20.1965 13.3173 20.3592 13.2857 20.5235 13.2864C20.8552 13.2879 21.1727 13.4211 21.4062 13.6566L27.6086 19.9066C27.8409 20.1408 27.9713 20.4573 27.9713 20.7871C27.9713 21.117 27.8409 21.4334 27.6086 21.6676L21.4062 27.9176C21.2906 28.0344 21.1531 28.1272 21.0015 28.1908C20.8499 28.2544 20.6873 28.2874 20.5229 28.2881C20.3586 28.2887 20.1957 28.257 20.0436 28.1946C19.8916 28.1322 19.7533 28.0405 19.6367 27.9246Z" fill="white"/>
</svg>
