<svg width="25" height="25" viewBox="0 0 25 25" fill="none" xmlns="http://www.w3.org/2000/svg">
<g clip-path="url(#clip0_401_1508)">
<path d="M24.4677 7.37248C24.4677 5.26311 22.9161 3.56623 20.9989 3.56623C18.402 3.44482 15.7536 3.39795 13.047 3.39795H12.2033C9.50329 3.39795 6.85016 3.44482 4.25329 3.5667C2.34079 3.5667 0.789225 5.27295 0.789225 7.38232C0.672038 9.0506 0.62235 10.7194 0.625163 12.3881C0.620475 14.0569 0.6736 15.7272 0.784538 17.399C0.784538 19.5084 2.3361 21.2194 4.2486 21.2194C6.97673 21.3459 9.77516 21.4022 12.6205 21.3975C15.4705 21.4069 18.2611 21.3475 20.9923 21.2194C22.9095 21.2194 24.4611 19.5084 24.4611 17.399C24.5736 15.7256 24.6252 14.0569 24.6205 12.3834C24.6311 10.7147 24.5802 9.04435 24.4677 7.37248ZM10.3283 16.9865V7.77561L17.1252 12.3787L10.3283 16.9865Z" fill="white"/>
</g>
<defs>
<clipPath id="clip0_401_1508">
<rect width="24" height="24" fill="white" transform="translate(0.625122 0.397949)"/>
</clipPath>
</defs>
</svg>
