<svg width="15" height="15" viewBox="0 0 15 15" fill="none" xmlns="http://www.w3.org/2000/svg">
<path d="M7.5 1.40625C4.13467 1.40625 1.40625 4.13467 1.40625 7.5C1.40625 10.8601 4.14023 13.5938 7.5 13.5938C10.865 13.5938 13.5938 10.865 13.5938 7.5C13.5938 4.13994 10.8601 1.40625 7.5 1.40625ZM10.6641 8.4375H7.14844C7.11736 8.4375 7.08755 8.42515 7.06557 8.40318C7.0436 8.3812 7.03125 8.35139 7.03125 8.32031V3.39844C7.03125 3.36736 7.0436 3.33755 7.06557 3.31557C7.08755 3.2936 7.11736 3.28125 7.14844 3.28125H7.85156C7.88264 3.28125 7.91245 3.2936 7.93443 3.31557C7.9564 3.33755 7.96875 3.36736 7.96875 3.39844V7.5H10.6641C10.6951 7.5 10.7249 7.51235 10.7469 7.53432C10.7689 7.5563 10.7812 7.58611 10.7812 7.61719V8.32031C10.7812 8.35139 10.7689 8.3812 10.7469 8.40318C10.7249 8.42515 10.6951 8.4375 10.6641 8.4375Z" fill="white"/>
</svg>
