<svg width="16" height="15" viewBox="0 0 16 15" fill="none" xmlns="http://www.w3.org/2000/svg">
<path d="M14.5625 3.75002C14.5625 3.25274 14.365 2.77582 14.0133 2.42419C13.6617 2.07256 13.1848 1.87502 12.6875 1.87502H12.2188V1.41945C12.2188 1.16721 12.0248 0.950702 11.7726 0.938104C11.7092 0.935051 11.6458 0.944896 11.5864 0.967045C11.5269 0.989194 11.4726 1.02319 11.4266 1.06696C11.3807 1.11073 11.3441 1.16337 11.3191 1.2217C11.2941 1.28002 11.2813 1.34282 11.2812 1.40627V1.87502H4.71875V1.41945C4.71875 1.16721 4.5248 0.950702 4.27256 0.938104C4.20918 0.935051 4.14584 0.944896 4.08638 0.967045C4.02692 0.989194 3.97257 1.02319 3.92663 1.06696C3.8807 1.11073 3.84412 1.16337 3.81913 1.2217C3.79414 1.28002 3.78126 1.34282 3.78125 1.40627V1.87502H3.3125C2.81522 1.87502 2.33831 2.07256 1.98667 2.42419C1.63504 2.77582 1.4375 3.25274 1.4375 3.75002V4.10158C1.4375 4.13266 1.44985 4.16247 1.47182 4.18445C1.4938 4.20642 1.52361 4.21877 1.55469 4.21877H14.4453C14.4764 4.21877 14.5062 4.20642 14.5282 4.18445C14.5502 4.16247 14.5625 4.13266 14.5625 4.10158V3.75002ZM1.4375 12.1875C1.4375 12.6848 1.63504 13.1617 1.98667 13.5133C2.33831 13.865 2.81522 14.0625 3.3125 14.0625H12.6875C13.1848 14.0625 13.6617 13.865 14.0133 13.5133C14.365 13.1617 14.5625 12.6848 14.5625 12.1875V5.24416C14.5625 5.22085 14.5532 5.19849 14.5368 5.18201C14.5203 5.16553 14.4979 5.15627 14.4746 5.15627H1.52539C1.50208 5.15627 1.47973 5.16553 1.46324 5.18201C1.44676 5.19849 1.4375 5.22085 1.4375 5.24416V12.1875ZM11.5156 6.09377C11.6547 6.09377 11.7906 6.13501 11.9063 6.21227C12.0219 6.28953 12.112 6.39934 12.1652 6.52782C12.2184 6.6563 12.2324 6.79767 12.2052 6.93407C12.1781 7.07046 12.1111 7.19574 12.0128 7.29408C11.9145 7.39241 11.7892 7.45938 11.6528 7.48651C11.5164 7.51364 11.375 7.49971 11.2466 7.4465C11.1181 7.39328 11.0083 7.30316 10.931 7.18753C10.8537 7.0719 10.8125 6.93596 10.8125 6.79689C10.8125 6.61041 10.8866 6.43157 11.0184 6.29971C11.1503 6.16785 11.3291 6.09377 11.5156 6.09377ZM11.5156 8.43752C11.6547 8.43752 11.7906 8.47876 11.9063 8.55602C12.0219 8.63328 12.112 8.74309 12.1652 8.87157C12.2184 9.00005 12.2324 9.14142 12.2052 9.27782C12.1781 9.41421 12.1111 9.53949 12.0128 9.63783C11.9145 9.73616 11.7892 9.80313 11.6528 9.83026C11.5164 9.85739 11.375 9.84346 11.2466 9.79025C11.1181 9.73703 11.0083 9.64691 10.931 9.53128C10.8537 9.41565 10.8125 9.27971 10.8125 9.14064C10.8125 8.95416 10.8866 8.77532 11.0184 8.64346C11.1503 8.5116 11.3291 8.43752 11.5156 8.43752ZM9.17188 6.09377C9.31094 6.09377 9.44688 6.13501 9.56251 6.21227C9.67814 6.28953 9.76826 6.39934 9.82148 6.52782C9.8747 6.6563 9.88862 6.79767 9.86149 6.93407C9.83436 7.07046 9.76739 7.19574 9.66906 7.29408C9.57073 7.39241 9.44544 7.45938 9.30905 7.48651C9.17265 7.51364 9.03128 7.49971 8.9028 7.4465C8.77432 7.39328 8.66451 7.30316 8.58725 7.18753C8.50999 7.0719 8.46875 6.93596 8.46875 6.79689C8.46875 6.61041 8.54283 6.43157 8.67469 6.29971C8.80655 6.16785 8.98539 6.09377 9.17188 6.09377ZM9.17188 8.43752C9.31094 8.43752 9.44688 8.47876 9.56251 8.55602C9.67814 8.63328 9.76826 8.74309 9.82148 8.87157C9.8747 9.00005 9.88862 9.14142 9.86149 9.27782C9.83436 9.41421 9.76739 9.53949 9.66906 9.63783C9.57073 9.73616 9.44544 9.80313 9.30905 9.83026C9.17265 9.85739 9.03128 9.84346 8.9028 9.79025C8.77432 9.73703 8.66451 9.64691 8.58725 9.53128C8.50999 9.41565 8.46875 9.27971 8.46875 9.14064C8.46875 8.95416 8.54283 8.77532 8.67469 8.64346C8.80655 8.5116 8.98539 8.43752 9.17188 8.43752ZM9.17188 10.7813C9.31094 10.7813 9.44688 10.8225 9.56251 10.8998C9.67814 10.977 9.76826 11.0868 9.82148 11.2153C9.8747 11.3438 9.88862 11.4852 9.86149 11.6216C9.83436 11.758 9.76739 11.8832 9.66906 11.9816C9.57073 12.0799 9.44544 12.1469 9.30905 12.174C9.17265 12.2011 9.03128 12.1872 8.9028 12.134C8.77432 12.0808 8.66451 11.9907 8.58725 11.875C8.50999 11.7594 8.46875 11.6235 8.46875 11.4844C8.46875 11.2979 8.54283 11.1191 8.67469 10.9872C8.80655 10.8553 8.98539 10.7813 9.17188 10.7813ZM6.82812 8.43752C6.96719 8.43752 7.10313 8.47876 7.21876 8.55602C7.33439 8.63328 7.42451 8.74309 7.47773 8.87157C7.53095 9.00005 7.54487 9.14142 7.51774 9.27782C7.49061 9.41421 7.42364 9.53949 7.32531 9.63783C7.22698 9.73616 7.10169 9.80313 6.9653 9.83026C6.82891 9.85739 6.68753 9.84346 6.55905 9.79025C6.43057 9.73703 6.32076 9.64691 6.2435 9.53128C6.16624 9.41565 6.125 9.27971 6.125 9.14064C6.125 8.95416 6.19908 8.77532 6.33094 8.64346C6.4628 8.5116 6.64164 8.43752 6.82812 8.43752ZM6.82812 10.7813C6.96719 10.7813 7.10313 10.8225 7.21876 10.8998C7.33439 10.977 7.42451 11.0868 7.47773 11.2153C7.53095 11.3438 7.54487 11.4852 7.51774 11.6216C7.49061 11.758 7.42364 11.8832 7.32531 11.9816C7.22698 12.0799 7.10169 12.1469 6.9653 12.174C6.82891 12.2011 6.68753 12.1872 6.55905 12.134C6.43057 12.0808 6.32076 11.9907 6.2435 11.875C6.16624 11.7594 6.125 11.6235 6.125 11.4844C6.125 11.2979 6.19908 11.1191 6.33094 10.9872C6.4628 10.8553 6.64164 10.7813 6.82812 10.7813ZM4.48438 8.43752C4.62344 8.43752 4.75938 8.47876 4.87501 8.55602C4.99064 8.63328 5.08076 8.74309 5.13398 8.87157C5.1872 9.00005 5.20112 9.14142 5.17399 9.27782C5.14686 9.41421 5.07989 9.53949 4.98156 9.63783C4.88323 9.73616 4.75794 9.80313 4.62155 9.83026C4.48516 9.85739 4.34378 9.84346 4.2153 9.79025C4.08682 9.73703 3.97701 9.64691 3.89975 9.53128C3.82249 9.41565 3.78125 9.27971 3.78125 9.14064C3.78125 8.95416 3.85533 8.77532 3.98719 8.64346C4.11905 8.5116 4.29789 8.43752 4.48438 8.43752ZM4.48438 10.7813C4.62344 10.7813 4.75938 10.8225 4.87501 10.8998C4.99064 10.977 5.08076 11.0868 5.13398 11.2153C5.1872 11.3438 5.20112 11.4852 5.17399 11.6216C5.14686 11.758 5.07989 11.8832 4.98156 11.9816C4.88323 12.0799 4.75794 12.1469 4.62155 12.174C4.48516 12.2011 4.34378 12.1872 4.2153 12.134C4.08682 12.0808 3.97701 11.9907 3.89975 11.875C3.82249 11.7594 3.78125 11.6235 3.78125 11.4844C3.78125 11.2979 3.85533 11.1191 3.98719 10.9872C4.11905 10.8553 4.29789 10.7813 4.48438 10.7813Z" fill="#272727"/>
</svg>
