<svg width="15" height="15" viewBox="0 0 15 15" fill="none" xmlns="http://www.w3.org/2000/svg">
<path d="M7.58492 1.40621C4.15777 1.35992 1.35992 4.15777 1.40621 7.58492C1.45191 10.8717 4.12818 13.548 7.415 13.5937C10.8427 13.6406 13.64 10.8427 13.5931 7.41558C13.548 4.12818 10.8717 1.45191 7.58492 1.40621ZM11.2886 10.9936C11.277 11.0062 11.2627 11.0161 11.2467 11.0226C11.2308 11.0291 11.2137 11.032 11.1965 11.0311C11.1793 11.0302 11.1626 11.0255 11.1474 11.0174C11.1322 11.0093 11.119 10.998 11.1087 10.9842C10.8467 10.6414 10.5258 10.3479 10.161 10.1173C9.41509 9.63863 8.46998 9.37496 7.49996 9.37496C6.52994 9.37496 5.58482 9.63863 4.83892 10.1173C4.47414 10.3478 4.15323 10.6412 3.89117 10.9839C3.88087 10.9977 3.86767 11.009 3.85251 11.0171C3.83735 11.0252 3.82059 11.0299 3.80342 11.0308C3.78626 11.0317 3.7691 11.0288 3.75318 11.0223C3.73726 11.0158 3.72295 11.0059 3.71128 10.9933C2.85162 10.0653 2.36465 8.85268 2.34371 7.58785C2.29595 4.73697 4.63531 2.35074 7.48736 2.34371C10.3394 2.33667 12.6562 4.65259 12.6562 7.49996C12.6572 8.79529 12.1687 10.0432 11.2886 10.9936Z" fill="white"/>
<path d="M7.50004 4.21875C6.9223 4.21875 6.39994 4.43525 6.02875 4.82871C5.65756 5.22217 5.47211 5.76621 5.514 6.3501C5.59896 7.5 6.48988 8.4375 7.50004 8.4375C8.51019 8.4375 9.39935 7.5 9.48607 6.35039C9.52943 5.77207 9.34545 5.23301 8.9681 4.83223C8.59545 4.43672 8.07396 4.21875 7.50004 4.21875Z" fill="white"/>
</svg>
