<svg width="16" height="15" viewBox="0 0 16 15" fill="none" xmlns="http://www.w3.org/2000/svg">
<path d="M8 1.40625C4.63467 1.40625 1.90625 4.13467 1.90625 7.5C1.90625 10.8601 4.64023 13.5938 8 13.5938C11.365 13.5938 14.0938 10.865 14.0938 7.5C14.0938 4.13994 11.3601 1.40625 8 1.40625ZM11.1641 8.4375H7.64844C7.61736 8.4375 7.58755 8.42515 7.56557 8.40318C7.5436 8.3812 7.53125 8.35139 7.53125 8.32031V3.39844C7.53125 3.36736 7.5436 3.33755 7.56557 3.31557C7.58755 3.2936 7.61736 3.28125 7.64844 3.28125H8.35156C8.38264 3.28125 8.41245 3.2936 8.43443 3.31557C8.4564 3.33755 8.46875 3.36736 8.46875 3.39844V7.5H11.1641C11.1951 7.5 11.2249 7.51235 11.2469 7.53432C11.2689 7.5563 11.2812 7.58611 11.2812 7.61719V8.32031C11.2812 8.35139 11.2689 8.3812 11.2469 8.40318C11.2249 8.42515 11.1951 8.4375 11.1641 8.4375Z" fill="white"/>
</svg>
