<svg width="15" height="15" viewBox="0 0 15 15" fill="none" xmlns="http://www.w3.org/2000/svg">
<path d="M7.58498 1.40633C4.15783 1.36004 1.35998 4.15789 1.40627 7.58504C1.45197 10.8719 4.12824 13.5481 7.41506 13.5938C10.8428 13.6407 13.6401 10.8429 13.5932 7.4157C13.5481 4.1283 10.8718 1.45203 7.58498 1.40633ZM11.2887 10.9937C11.277 11.0064 11.2627 11.0162 11.2468 11.0227C11.2309 11.0292 11.2137 11.0321 11.1966 11.0312C11.1794 11.0303 11.1626 11.0256 11.1475 11.0175C11.1323 11.0095 11.1191 10.9981 11.1088 10.9844C10.8468 10.6415 10.5258 10.348 10.1611 10.1175C9.41515 9.63875 8.47004 9.37508 7.50002 9.37508C6.53 9.37508 5.58488 9.63875 4.83898 10.1175C4.4742 10.3479 4.15329 10.6413 3.89123 10.9841C3.88093 10.9978 3.86774 11.0092 3.85257 11.0173C3.83741 11.0253 3.82065 11.03 3.80348 11.0309C3.78632 11.0318 3.76917 11.0289 3.75324 11.0224C3.73732 11.016 3.72302 11.0061 3.71135 10.9934C2.85168 10.0654 2.36471 8.8528 2.34377 7.58797C2.29601 4.73709 4.63537 2.35086 7.48742 2.34383C10.3395 2.3368 12.6563 4.65271 12.6563 7.50008C12.6573 8.79541 12.1688 10.0433 11.2887 10.9937Z" fill="white"/>
<path d="M7.49998 4.21875C6.92224 4.21875 6.39988 4.43525 6.02869 4.82871C5.6575 5.22217 5.47205 5.76621 5.51394 6.3501C5.5989 7.5 6.48982 8.4375 7.49998 8.4375C8.51013 8.4375 9.39929 7.5 9.48601 6.35039C9.52937 5.77207 9.34539 5.23301 8.96804 4.83223C8.59539 4.43672 8.0739 4.21875 7.49998 4.21875Z" fill="white"/>
</svg>
