<svg width="16" height="15" viewBox="0 0 16 15" fill="none" xmlns="http://www.w3.org/2000/svg">
<path d="M14.5625 3.74996C14.5625 3.25268 14.365 2.77576 14.0133 2.42413C13.6617 2.0725 13.1848 1.87496 12.6875 1.87496H12.2188V1.41939C12.2188 1.16714 12.0248 0.950641 11.7726 0.938043C11.7092 0.934989 11.6458 0.944835 11.5864 0.966984C11.5269 0.989133 11.4726 1.02312 11.4266 1.0669C11.3807 1.11067 11.3441 1.16331 11.3191 1.22164C11.2941 1.27996 11.2813 1.34275 11.2812 1.40621V1.87496H4.71875V1.41939C4.71875 1.16714 4.5248 0.950641 4.27256 0.938043C4.20918 0.934989 4.14584 0.944835 4.08638 0.966984C4.02692 0.989133 3.97257 1.02312 3.92663 1.0669C3.8807 1.11067 3.84412 1.16331 3.81913 1.22164C3.79414 1.27996 3.78126 1.34275 3.78125 1.40621V1.87496H3.3125C2.81522 1.87496 2.33831 2.0725 1.98667 2.42413C1.63504 2.77576 1.4375 3.25268 1.4375 3.74996V4.10152C1.4375 4.1326 1.44985 4.16241 1.47182 4.18438C1.4938 4.20636 1.52361 4.21871 1.55469 4.21871H14.4453C14.4764 4.21871 14.5062 4.20636 14.5282 4.18438C14.5502 4.16241 14.5625 4.1326 14.5625 4.10152V3.74996ZM1.4375 12.1875C1.4375 12.6847 1.63504 13.1617 1.98667 13.5133C2.33831 13.8649 2.81522 14.0625 3.3125 14.0625H12.6875C13.1848 14.0625 13.6617 13.8649 14.0133 13.5133C14.365 13.1617 14.5625 12.6847 14.5625 12.1875V5.2441C14.5625 5.22079 14.5532 5.19843 14.5368 5.18195C14.5203 5.16547 14.4979 5.15621 14.4746 5.15621H1.52539C1.50208 5.15621 1.47973 5.16547 1.46324 5.18195C1.44676 5.19843 1.4375 5.22079 1.4375 5.2441V12.1875ZM11.5156 6.09371C11.6547 6.09371 11.7906 6.13494 11.9063 6.21221C12.0219 6.28947 12.112 6.39928 12.1652 6.52776C12.2184 6.65624 12.2324 6.79761 12.2052 6.93401C12.1781 7.0704 12.1111 7.19568 12.0128 7.29402C11.9145 7.39235 11.7892 7.45932 11.6528 7.48645C11.5164 7.51358 11.375 7.49965 11.2466 7.44644C11.1181 7.39322 11.0083 7.3031 10.931 7.18747C10.8537 7.07184 10.8125 6.9359 10.8125 6.79683C10.8125 6.61035 10.8866 6.43151 11.0184 6.29965C11.1503 6.16779 11.3291 6.09371 11.5156 6.09371ZM11.5156 8.43746C11.6547 8.43746 11.7906 8.4787 11.9063 8.55596C12.0219 8.63322 12.112 8.74303 12.1652 8.87151C12.2184 8.99999 12.2324 9.14136 12.2052 9.27776C12.1781 9.41415 12.1111 9.53943 12.0128 9.63777C11.9145 9.7361 11.7892 9.80307 11.6528 9.8302C11.5164 9.85733 11.375 9.8434 11.2466 9.79019C11.1181 9.73697 11.0083 9.64685 10.931 9.53122C10.8537 9.41559 10.8125 9.27965 10.8125 9.14058C10.8125 8.9541 10.8866 8.77526 11.0184 8.6434C11.1503 8.51154 11.3291 8.43746 11.5156 8.43746ZM9.17188 6.09371C9.31094 6.09371 9.44688 6.13494 9.56251 6.21221C9.67814 6.28947 9.76826 6.39928 9.82148 6.52776C9.8747 6.65624 9.88862 6.79761 9.86149 6.93401C9.83436 7.0704 9.76739 7.19568 9.66906 7.29402C9.57073 7.39235 9.44544 7.45932 9.30905 7.48645C9.17265 7.51358 9.03128 7.49965 8.9028 7.44644C8.77432 7.39322 8.66451 7.3031 8.58725 7.18747C8.50999 7.07184 8.46875 6.9359 8.46875 6.79683C8.46875 6.61035 8.54283 6.43151 8.67469 6.29965C8.80655 6.16779 8.98539 6.09371 9.17188 6.09371ZM9.17188 8.43746C9.31094 8.43746 9.44688 8.4787 9.56251 8.55596C9.67814 8.63322 9.76826 8.74303 9.82148 8.87151C9.8747 8.99999 9.88862 9.14136 9.86149 9.27776C9.83436 9.41415 9.76739 9.53943 9.66906 9.63777C9.57073 9.7361 9.44544 9.80307 9.30905 9.8302C9.17265 9.85733 9.03128 9.8434 8.9028 9.79019C8.77432 9.73697 8.66451 9.64685 8.58725 9.53122C8.50999 9.41559 8.46875 9.27965 8.46875 9.14058C8.46875 8.9541 8.54283 8.77526 8.67469 8.6434C8.80655 8.51154 8.98539 8.43746 9.17188 8.43746ZM9.17188 10.7812C9.31094 10.7812 9.44688 10.8224 9.56251 10.8997C9.67814 10.977 9.76826 11.0868 9.82148 11.2153C9.8747 11.3437 9.88862 11.4851 9.86149 11.6215C9.83436 11.7579 9.76739 11.8832 9.66906 11.9815C9.57073 12.0799 9.44544 12.1468 9.30905 12.1739C9.17265 12.2011 9.03128 12.1872 8.9028 12.1339C8.77432 12.0807 8.66451 11.9906 8.58725 11.875C8.50999 11.7593 8.46875 11.6234 8.46875 11.4843C8.46875 11.2979 8.54283 11.119 8.67469 10.9871C8.80655 10.8553 8.98539 10.7812 9.17188 10.7812ZM6.82812 8.43746C6.96719 8.43746 7.10313 8.4787 7.21876 8.55596C7.33439 8.63322 7.42451 8.74303 7.47773 8.87151C7.53095 8.99999 7.54487 9.14136 7.51774 9.27776C7.49061 9.41415 7.42364 9.53943 7.32531 9.63777C7.22698 9.7361 7.10169 9.80307 6.9653 9.8302C6.82891 9.85733 6.68753 9.8434 6.55905 9.79019C6.43057 9.73697 6.32076 9.64685 6.2435 9.53122C6.16624 9.41559 6.125 9.27965 6.125 9.14058C6.125 8.9541 6.19908 8.77526 6.33094 8.6434C6.4628 8.51154 6.64164 8.43746 6.82812 8.43746ZM6.82812 10.7812C6.96719 10.7812 7.10313 10.8224 7.21876 10.8997C7.33439 10.977 7.42451 11.0868 7.47773 11.2153C7.53095 11.3437 7.54487 11.4851 7.51774 11.6215C7.49061 11.7579 7.42364 11.8832 7.32531 11.9815C7.22698 12.0799 7.10169 12.1468 6.9653 12.1739C6.82891 12.2011 6.68753 12.1872 6.55905 12.1339C6.43057 12.0807 6.32076 11.9906 6.2435 11.875C6.16624 11.7593 6.125 11.6234 6.125 11.4843C6.125 11.2979 6.19908 11.119 6.33094 10.9871C6.4628 10.8553 6.64164 10.7812 6.82812 10.7812ZM4.48438 8.43746C4.62344 8.43746 4.75938 8.4787 4.87501 8.55596C4.99064 8.63322 5.08076 8.74303 5.13398 8.87151C5.1872 8.99999 5.20112 9.14136 5.17399 9.27776C5.14686 9.41415 5.07989 9.53943 4.98156 9.63777C4.88323 9.7361 4.75794 9.80307 4.62155 9.8302C4.48516 9.85733 4.34378 9.8434 4.2153 9.79019C4.08682 9.73697 3.97701 9.64685 3.89975 9.53122C3.82249 9.41559 3.78125 9.27965 3.78125 9.14058C3.78125 8.9541 3.85533 8.77526 3.98719 8.6434C4.11905 8.51154 4.29789 8.43746 4.48438 8.43746ZM4.48438 10.7812C4.62344 10.7812 4.75938 10.8224 4.87501 10.8997C4.99064 10.977 5.08076 11.0868 5.13398 11.2153C5.1872 11.3437 5.20112 11.4851 5.17399 11.6215C5.14686 11.7579 5.07989 11.8832 4.98156 11.9815C4.88323 12.0799 4.75794 12.1468 4.62155 12.1739C4.48516 12.2011 4.34378 12.1872 4.2153 12.1339C4.08682 12.0807 3.97701 11.9906 3.89975 11.875C3.82249 11.7593 3.78125 11.6234 3.78125 11.4843C3.78125 11.2979 3.85533 11.119 3.98719 10.9871C4.11905 10.8553 4.29789 10.7812 4.48438 10.7812Z" fill="#272727"/>
</svg>
