<svg width="15" height="15" viewBox="0 0 15 15" fill="none" xmlns="http://www.w3.org/2000/svg">
<path d="M7.58504 1.40624C4.15789 1.35995 1.36004 4.1578 1.40633 7.58495C1.45203 10.8718 4.1283 13.548 7.41512 13.5937C10.8429 13.6406 13.6401 10.8428 13.5932 7.41561C13.5481 4.12821 10.8719 1.45194 7.58504 1.40624ZM11.2888 10.9936C11.2771 11.0063 11.2628 11.0162 11.2469 11.0226C11.2309 11.0291 11.2138 11.032 11.1966 11.0311C11.1794 11.0302 11.1627 11.0256 11.1475 11.0175C11.1324 11.0094 11.1192 10.998 11.1089 10.9843C10.8468 10.6414 10.5259 10.3479 10.1611 10.1174C9.41522 9.63866 8.4701 9.37499 7.50008 9.37499C6.53006 9.37499 5.58494 9.63866 4.83904 10.1174C4.47426 10.3478 4.15335 10.6412 3.89129 10.984C3.88099 10.9977 3.8678 11.0091 3.85263 11.0172C3.83747 11.0253 3.82071 11.0299 3.80354 11.0308C3.78638 11.0317 3.76923 11.0288 3.7533 11.0223C3.73738 11.0159 3.72308 11.006 3.71141 10.9933C2.85174 10.0653 2.36477 8.85271 2.34383 7.58788C2.29607 4.737 4.63543 2.35077 7.48748 2.34374C10.3395 2.33671 12.6563 4.65262 12.6563 7.49999C12.6573 8.79532 12.1688 10.0432 11.2888 10.9936Z" fill="white"/>
<path d="M7.49991 4.21875C6.92218 4.21875 6.39982 4.43525 6.02863 4.82871C5.65743 5.22217 5.47199 5.76621 5.51388 6.3501C5.59884 7.5 6.48976 8.4375 7.49991 8.4375C8.51007 8.4375 9.39923 7.5 9.48595 6.35039C9.52931 5.77207 9.34532 5.23301 8.96798 4.83223C8.59532 4.43672 8.07384 4.21875 7.49991 4.21875Z" fill="white"/>
</svg>
