<svg width="16" height="15" viewBox="0 0 16 15" fill="none" xmlns="http://www.w3.org/2000/svg">
<path d="M8.08492 1.40621C4.65777 1.35992 1.85992 4.15777 1.90621 7.58492C1.95191 10.8717 4.62818 13.548 7.915 13.5937C11.3427 13.6406 14.14 10.8427 14.0931 7.41558C14.048 4.12818 11.3717 1.45191 8.08492 1.40621ZM11.7886 10.9936C11.777 11.0062 11.7627 11.0161 11.7467 11.0226C11.7308 11.0291 11.7137 11.032 11.6965 11.0311C11.6793 11.0302 11.6626 11.0255 11.6474 11.0174C11.6322 11.0093 11.619 10.998 11.6087 10.9842C11.3467 10.6414 11.0258 10.3479 10.661 10.1173C9.91509 9.63863 8.96998 9.37496 7.99996 9.37496C7.02994 9.37496 6.08482 9.63863 5.33892 10.1173C4.97414 10.3478 4.65323 10.6412 4.39117 10.9839C4.38087 10.9977 4.36767 11.009 4.35251 11.0171C4.33735 11.0252 4.32059 11.0299 4.30342 11.0308C4.28626 11.0317 4.2691 11.0288 4.25318 11.0223C4.23726 11.0158 4.22295 11.0059 4.21128 10.9933C3.35162 10.0653 2.86465 8.85268 2.84371 7.58785C2.79595 4.73697 5.13531 2.35074 7.98736 2.34371C10.8394 2.33667 13.1562 4.65259 13.1562 7.49996C13.1572 8.79529 12.6687 10.0432 11.7886 10.9936Z" fill="#272727"/>
<path d="M8.00004 4.21875C7.4223 4.21875 6.89994 4.43525 6.52875 4.82871C6.15756 5.22217 5.97211 5.76621 6.014 6.3501C6.09896 7.5 6.98988 8.4375 8.00004 8.4375C9.01019 8.4375 9.89935 7.5 9.98607 6.35039C10.0294 5.77207 9.84545 5.23301 9.4681 4.83223C9.09545 4.43672 8.57396 4.21875 8.00004 4.21875Z" fill="#272727"/>
</svg>
