<svg width="15" height="15" viewBox="0 0 15 15" fill="none" xmlns="http://www.w3.org/2000/svg">
<path d="M7.58492 1.40633C4.15777 1.36004 1.35992 4.15789 1.40621 7.58504C1.45191 10.8719 4.12818 13.5481 7.415 13.5938C10.8427 13.6407 13.64 10.8429 13.5931 7.4157C13.548 4.1283 10.8717 1.45203 7.58492 1.40633ZM11.2886 10.9937C11.277 11.0064 11.2627 11.0162 11.2467 11.0227C11.2308 11.0292 11.2137 11.0321 11.1965 11.0312C11.1793 11.0303 11.1626 11.0256 11.1474 11.0175C11.1322 11.0095 11.119 10.9981 11.1087 10.9844C10.8467 10.6415 10.5258 10.348 10.161 10.1175C9.41509 9.63875 8.46998 9.37508 7.49996 9.37508C6.52994 9.37508 5.58482 9.63875 4.83892 10.1175C4.47414 10.3479 4.15323 10.6413 3.89117 10.9841C3.88087 10.9978 3.86767 11.0092 3.85251 11.0173C3.83735 11.0253 3.82059 11.03 3.80342 11.0309C3.78626 11.0318 3.7691 11.0289 3.75318 11.0224C3.73726 11.016 3.72295 11.0061 3.71128 10.9934C2.85162 10.0654 2.36465 8.8528 2.34371 7.58797C2.29595 4.73709 4.63531 2.35086 7.48736 2.34383C10.3394 2.3368 12.6562 4.65271 12.6562 7.50008C12.6572 8.79541 12.1687 10.0433 11.2886 10.9937Z" fill="white"/>
<path d="M7.50004 4.21875C6.9223 4.21875 6.39994 4.43525 6.02875 4.82871C5.65756 5.22217 5.47211 5.76621 5.514 6.3501C5.59896 7.5 6.48988 8.4375 7.50004 8.4375C8.51019 8.4375 9.39935 7.5 9.48607 6.35039C9.52943 5.77207 9.34545 5.23301 8.9681 4.83223C8.59545 4.43672 8.07396 4.21875 7.50004 4.21875Z" fill="white"/>
</svg>
