<svg width="16" height="15" viewBox="0 0 16 15" fill="none" xmlns="http://www.w3.org/2000/svg">
<path d="M14.5625 3.74999C14.5625 3.25271 14.365 2.77579 14.0133 2.42416C13.6617 2.07253 13.1848 1.87499 12.6875 1.87499H12.2188V1.41942C12.2188 1.16718 12.0248 0.950671 11.7726 0.938074C11.7092 0.93502 11.6458 0.944866 11.5864 0.967015C11.5269 0.989164 11.4726 1.02315 11.4266 1.06693C11.3807 1.1107 11.3441 1.16334 11.3191 1.22167C11.2941 1.27999 11.2813 1.34278 11.2812 1.40624V1.87499H4.71875V1.41942C4.71875 1.16718 4.5248 0.950671 4.27256 0.938074C4.20918 0.93502 4.14584 0.944866 4.08638 0.967015C4.02692 0.989164 3.97257 1.02315 3.92663 1.06693C3.8807 1.1107 3.84412 1.16334 3.81913 1.22167C3.79414 1.27999 3.78126 1.34278 3.78125 1.40624V1.87499H3.3125C2.81522 1.87499 2.33831 2.07253 1.98667 2.42416C1.63504 2.77579 1.4375 3.25271 1.4375 3.74999V4.10155C1.4375 4.13263 1.44985 4.16244 1.47182 4.18441C1.4938 4.20639 1.52361 4.21874 1.55469 4.21874H14.4453C14.4764 4.21874 14.5062 4.20639 14.5282 4.18441C14.5502 4.16244 14.5625 4.13263 14.5625 4.10155V3.74999ZM1.4375 12.1875C1.4375 12.6848 1.63504 13.1617 1.98667 13.5133C2.33831 13.8649 2.81522 14.0625 3.3125 14.0625H12.6875C13.1848 14.0625 13.6617 13.8649 14.0133 13.5133C14.365 13.1617 14.5625 12.6848 14.5625 12.1875V5.24413C14.5625 5.22082 14.5532 5.19846 14.5368 5.18198C14.5203 5.1655 14.4979 5.15624 14.4746 5.15624H1.52539C1.50208 5.15624 1.47973 5.1655 1.46324 5.18198C1.44676 5.19846 1.4375 5.22082 1.4375 5.24413V12.1875ZM11.5156 6.09374C11.6547 6.09374 11.7906 6.13498 11.9063 6.21224C12.0219 6.2895 12.112 6.39931 12.1652 6.52779C12.2184 6.65627 12.2324 6.79764 12.2052 6.93404C12.1781 7.07043 12.1111 7.19571 12.0128 7.29405C11.9145 7.39238 11.7892 7.45935 11.6528 7.48648C11.5164 7.51361 11.375 7.49968 11.2466 7.44647C11.1181 7.39325 11.0083 7.30313 10.931 7.1875C10.8537 7.07187 10.8125 6.93593 10.8125 6.79686C10.8125 6.61038 10.8866 6.43154 11.0184 6.29968C11.1503 6.16782 11.3291 6.09374 11.5156 6.09374ZM11.5156 8.43749C11.6547 8.43749 11.7906 8.47873 11.9063 8.55599C12.0219 8.63325 12.112 8.74306 12.1652 8.87154C12.2184 9.00002 12.2324 9.14139 12.2052 9.27779C12.1781 9.41418 12.1111 9.53946 12.0128 9.6378C11.9145 9.73613 11.7892 9.8031 11.6528 9.83023C11.5164 9.85736 11.375 9.84343 11.2466 9.79022C11.1181 9.737 11.0083 9.64688 10.931 9.53125C10.8537 9.41562 10.8125 9.27968 10.8125 9.14061C10.8125 8.95413 10.8866 8.77529 11.0184 8.64343C11.1503 8.51157 11.3291 8.43749 11.5156 8.43749ZM9.17188 6.09374C9.31094 6.09374 9.44688 6.13498 9.56251 6.21224C9.67814 6.2895 9.76826 6.39931 9.82148 6.52779C9.8747 6.65627 9.88862 6.79764 9.86149 6.93404C9.83436 7.07043 9.76739 7.19571 9.66906 7.29405C9.57073 7.39238 9.44544 7.45935 9.30905 7.48648C9.17265 7.51361 9.03128 7.49968 8.9028 7.44647C8.77432 7.39325 8.66451 7.30313 8.58725 7.1875C8.50999 7.07187 8.46875 6.93593 8.46875 6.79686C8.46875 6.61038 8.54283 6.43154 8.67469 6.29968C8.80655 6.16782 8.98539 6.09374 9.17188 6.09374ZM9.17188 8.43749C9.31094 8.43749 9.44688 8.47873 9.56251 8.55599C9.67814 8.63325 9.76826 8.74306 9.82148 8.87154C9.8747 9.00002 9.88862 9.14139 9.86149 9.27779C9.83436 9.41418 9.76739 9.53946 9.66906 9.6378C9.57073 9.73613 9.44544 9.8031 9.30905 9.83023C9.17265 9.85736 9.03128 9.84343 8.9028 9.79022C8.77432 9.737 8.66451 9.64688 8.58725 9.53125C8.50999 9.41562 8.46875 9.27968 8.46875 9.14061C8.46875 8.95413 8.54283 8.77529 8.67469 8.64343C8.80655 8.51157 8.98539 8.43749 9.17188 8.43749ZM9.17188 10.7812C9.31094 10.7812 9.44688 10.8225 9.56251 10.8997C9.67814 10.977 9.76826 11.0868 9.82148 11.2153C9.8747 11.3438 9.88862 11.4851 9.86149 11.6215C9.83436 11.7579 9.76739 11.8832 9.66906 11.9815C9.57073 12.0799 9.44544 12.1468 9.30905 12.174C9.17265 12.2011 9.03128 12.1872 8.9028 12.134C8.77432 12.0807 8.66451 11.9906 8.58725 11.875C8.50999 11.7594 8.46875 11.6234 8.46875 11.4844C8.46875 11.2979 8.54283 11.119 8.67469 10.9872C8.80655 10.8553 8.98539 10.7812 9.17188 10.7812ZM6.82812 8.43749C6.96719 8.43749 7.10313 8.47873 7.21876 8.55599C7.33439 8.63325 7.42451 8.74306 7.47773 8.87154C7.53095 9.00002 7.54487 9.14139 7.51774 9.27779C7.49061 9.41418 7.42364 9.53946 7.32531 9.6378C7.22698 9.73613 7.10169 9.8031 6.9653 9.83023C6.82891 9.85736 6.68753 9.84343 6.55905 9.79022C6.43057 9.737 6.32076 9.64688 6.2435 9.53125C6.16624 9.41562 6.125 9.27968 6.125 9.14061C6.125 8.95413 6.19908 8.77529 6.33094 8.64343C6.4628 8.51157 6.64164 8.43749 6.82812 8.43749ZM6.82812 10.7812C6.96719 10.7812 7.10313 10.8225 7.21876 10.8997C7.33439 10.977 7.42451 11.0868 7.47773 11.2153C7.53095 11.3438 7.54487 11.4851 7.51774 11.6215C7.49061 11.7579 7.42364 11.8832 7.32531 11.9815C7.22698 12.0799 7.10169 12.1468 6.9653 12.174C6.82891 12.2011 6.68753 12.1872 6.55905 12.134C6.43057 12.0807 6.32076 11.9906 6.2435 11.875C6.16624 11.7594 6.125 11.6234 6.125 11.4844C6.125 11.2979 6.19908 11.119 6.33094 10.9872C6.4628 10.8553 6.64164 10.7812 6.82812 10.7812ZM4.48438 8.43749C4.62344 8.43749 4.75938 8.47873 4.87501 8.55599C4.99064 8.63325 5.08076 8.74306 5.13398 8.87154C5.1872 9.00002 5.20112 9.14139 5.17399 9.27779C5.14686 9.41418 5.07989 9.53946 4.98156 9.6378C4.88323 9.73613 4.75794 9.8031 4.62155 9.83023C4.48516 9.85736 4.34378 9.84343 4.2153 9.79022C4.08682 9.737 3.97701 9.64688 3.89975 9.53125C3.82249 9.41562 3.78125 9.27968 3.78125 9.14061C3.78125 8.95413 3.85533 8.77529 3.98719 8.64343C4.11905 8.51157 4.29789 8.43749 4.48438 8.43749ZM4.48438 10.7812C4.62344 10.7812 4.75938 10.8225 4.87501 10.8997C4.99064 10.977 5.08076 11.0868 5.13398 11.2153C5.1872 11.3438 5.20112 11.4851 5.17399 11.6215C5.14686 11.7579 5.07989 11.8832 4.98156 11.9815C4.88323 12.0799 4.75794 12.1468 4.62155 12.174C4.48516 12.2011 4.34378 12.1872 4.2153 12.134C4.08682 12.0807 3.97701 11.9906 3.89975 11.875C3.82249 11.7594 3.78125 11.6234 3.78125 11.4844C3.78125 11.2979 3.85533 11.119 3.98719 10.9872C4.11905 10.8553 4.29789 10.7812 4.48438 10.7812Z" fill="#272727"/>
</svg>
