<svg width="16" height="15" viewBox="0 0 16 15" fill="none" xmlns="http://www.w3.org/2000/svg">
<path d="M8.08498 1.40624C4.65783 1.35995 1.85998 4.1578 1.90627 7.58495C1.95197 10.8718 4.62824 13.548 7.91506 13.5937C11.3428 13.6406 14.1401 10.8428 14.0932 7.41561C14.0481 4.12821 11.3718 1.45194 8.08498 1.40624ZM11.7887 10.9936C11.777 11.0063 11.7627 11.0162 11.7468 11.0226C11.7309 11.0291 11.7137 11.032 11.6966 11.0311C11.6794 11.0302 11.6626 11.0256 11.6475 11.0175C11.6323 11.0094 11.6191 10.998 11.6088 10.9843C11.3468 10.6414 11.0258 10.3479 10.6611 10.1174C9.91515 9.63866 8.97004 9.37499 8.00002 9.37499C7.03 9.37499 6.08488 9.63866 5.33898 10.1174C4.9742 10.3478 4.65329 10.6412 4.39123 10.984C4.38093 10.9977 4.36774 11.0091 4.35257 11.0172C4.33741 11.0253 4.32065 11.0299 4.30348 11.0308C4.28632 11.0317 4.26917 11.0288 4.25324 11.0223C4.23732 11.0159 4.22302 11.006 4.21135 10.9933C3.35168 10.0653 2.86471 8.85271 2.84377 7.58788C2.79601 4.737 5.13537 2.35077 7.98742 2.34374C10.8395 2.33671 13.1563 4.65262 13.1563 7.49999C13.1573 8.79532 12.6688 10.0432 11.7887 10.9936Z" fill="#272727"/>
<path d="M7.99998 4.21875C7.42224 4.21875 6.89988 4.43525 6.52869 4.82871C6.1575 5.22217 5.97205 5.76621 6.01394 6.3501C6.0989 7.5 6.98982 8.4375 7.99998 8.4375C9.01013 8.4375 9.89929 7.5 9.98601 6.35039C10.0294 5.77207 9.84539 5.23301 9.46804 4.83223C9.09539 4.43672 8.5739 4.21875 7.99998 4.21875Z" fill="#272727"/>
</svg>
