<svg width="25" height="25" viewBox="0 0 25 25" fill="none" xmlns="http://www.w3.org/2000/svg">
<path d="M23.875 5.53077C23.031 5.8975 22.138 6.13911 21.2242 6.24796C22.1845 5.68564 22.9067 4.79229 23.2553 3.73546C22.3474 4.26636 21.3557 4.63887 20.3228 4.83702C19.8879 4.38117 19.3647 4.01854 18.7853 3.77115C18.2058 3.52376 17.5821 3.39679 16.952 3.39796C14.4011 3.39796 12.3367 5.43233 12.3367 7.94014C12.3349 8.28897 12.3749 8.63676 12.4558 8.97608C10.6266 8.89033 8.8354 8.4237 7.19687 7.60605C5.55833 6.78839 4.10851 5.63772 2.94016 4.22764C2.53027 4.91864 2.3135 5.70704 2.3125 6.51046C2.3125 8.08546 3.13422 9.47764 4.375 10.2933C3.63987 10.2758 2.91981 10.0813 2.27594 9.72608V9.78233C2.27594 11.9855 3.86969 13.8183 5.97906 14.2355C5.5824 14.3412 5.17364 14.3948 4.76312 14.3948C4.47183 14.3953 4.1812 14.3671 3.89547 14.3105C4.48187 16.1151 6.18859 17.4276 8.21031 17.4651C6.56752 18.7312 4.5506 19.4155 2.47656 19.4105C2.10841 19.4099 1.74061 19.388 1.375 19.3448C3.48493 20.6921 5.93755 21.4048 8.44094 21.398C16.9422 21.398 21.5866 14.4745 21.5866 8.46983C21.5866 8.27296 21.5814 8.07608 21.572 7.88389C22.4735 7.24267 23.2533 6.44582 23.875 5.53077Z" fill="white"/>
</svg>
