<svg width="15" height="15" viewBox="0 0 15 15" fill="none" xmlns="http://www.w3.org/2000/svg">
<g clip-path="url(#clip0_135_465)">
<path d="M14.0625 3.74999C14.0625 3.25271 13.865 2.77579 13.5133 2.42416C13.1617 2.07253 12.6848 1.87499 12.1875 1.87499H11.7188V1.41942C11.7188 1.16718 11.5248 0.950671 11.2726 0.938074C11.2092 0.93502 11.1458 0.944866 11.0864 0.967015C11.0269 0.989164 10.9726 1.02315 10.9266 1.06693C10.8807 1.1107 10.8441 1.16334 10.8191 1.22167C10.7941 1.27999 10.7813 1.34278 10.7812 1.40624V1.87499H4.21875V1.41942C4.21875 1.16718 4.0248 0.950671 3.77256 0.938074C3.70918 0.93502 3.64584 0.944866 3.58638 0.967015C3.52692 0.989164 3.47257 1.02315 3.42663 1.06693C3.3807 1.1107 3.34412 1.16334 3.31913 1.22167C3.29414 1.27999 3.28126 1.34278 3.28125 1.40624V1.87499H2.8125C2.31522 1.87499 1.83831 2.07253 1.48667 2.42416C1.13504 2.77579 0.9375 3.25271 0.9375 3.74999V4.10155C0.9375 4.13263 0.949847 4.16244 0.971823 4.18441C0.9938 4.20639 1.02361 4.21874 1.05469 4.21874H13.9453C13.9764 4.21874 14.0062 4.20639 14.0282 4.18441C14.0502 4.16244 14.0625 4.13263 14.0625 4.10155V3.74999ZM0.9375 12.1875C0.9375 12.6848 1.13504 13.1617 1.48667 13.5133C1.83831 13.8649 2.31522 14.0625 2.8125 14.0625H12.1875C12.6848 14.0625 13.1617 13.8649 13.5133 13.5133C13.865 13.1617 14.0625 12.6848 14.0625 12.1875V5.24413C14.0625 5.22082 14.0532 5.19846 14.0368 5.18198C14.0203 5.1655 13.9979 5.15624 13.9746 5.15624H1.02539C1.00208 5.15624 0.979725 5.1655 0.963243 5.18198C0.94676 5.19846 0.9375 5.22082 0.9375 5.24413V12.1875ZM11.0156 6.09374C11.1547 6.09374 11.2906 6.13498 11.4063 6.21224C11.5219 6.2895 11.612 6.39931 11.6652 6.52779C11.7184 6.65627 11.7324 6.79764 11.7052 6.93404C11.6781 7.07043 11.6111 7.19571 11.5128 7.29405C11.4145 7.39238 11.2892 7.45935 11.1528 7.48648C11.0164 7.51361 10.875 7.49968 10.7466 7.44647C10.6181 7.39325 10.5083 7.30313 10.431 7.1875C10.3537 7.07187 10.3125 6.93593 10.3125 6.79686C10.3125 6.61038 10.3866 6.43154 10.5184 6.29968C10.6503 6.16782 10.8291 6.09374 11.0156 6.09374ZM11.0156 8.43749C11.1547 8.43749 11.2906 8.47873 11.4063 8.55599C11.5219 8.63325 11.612 8.74306 11.6652 8.87154C11.7184 9.00002 11.7324 9.14139 11.7052 9.27779C11.6781 9.41418 11.6111 9.53946 11.5128 9.6378C11.4145 9.73613 11.2892 9.8031 11.1528 9.83023C11.0164 9.85736 10.875 9.84343 10.7466 9.79022C10.6181 9.737 10.5083 9.64688 10.431 9.53125C10.3537 9.41562 10.3125 9.27968 10.3125 9.14061C10.3125 8.95413 10.3866 8.77529 10.5184 8.64343C10.6503 8.51157 10.8291 8.43749 11.0156 8.43749ZM8.67188 6.09374C8.81094 6.09374 8.94688 6.13498 9.06251 6.21224C9.17814 6.2895 9.26826 6.39931 9.32148 6.52779C9.3747 6.65627 9.38862 6.79764 9.36149 6.93404C9.33436 7.07043 9.26739 7.19571 9.16906 7.29405C9.07073 7.39238 8.94544 7.45935 8.80905 7.48648C8.67265 7.51361 8.53128 7.49968 8.4028 7.44647C8.27432 7.39325 8.16451 7.30313 8.08725 7.1875C8.00999 7.07187 7.96875 6.93593 7.96875 6.79686C7.96875 6.61038 8.04283 6.43154 8.17469 6.29968C8.30655 6.16782 8.48539 6.09374 8.67188 6.09374ZM8.67188 8.43749C8.81094 8.43749 8.94688 8.47873 9.06251 8.55599C9.17814 8.63325 9.26826 8.74306 9.32148 8.87154C9.3747 9.00002 9.38862 9.14139 9.36149 9.27779C9.33436 9.41418 9.26739 9.53946 9.16906 9.6378C9.07073 9.73613 8.94544 9.8031 8.80905 9.83023C8.67265 9.85736 8.53128 9.84343 8.4028 9.79022C8.27432 9.737 8.16451 9.64688 8.08725 9.53125C8.00999 9.41562 7.96875 9.27968 7.96875 9.14061C7.96875 8.95413 8.04283 8.77529 8.17469 8.64343C8.30655 8.51157 8.48539 8.43749 8.67188 8.43749ZM8.67188 10.7812C8.81094 10.7812 8.94688 10.8225 9.06251 10.8997C9.17814 10.977 9.26826 11.0868 9.32148 11.2153C9.3747 11.3438 9.38862 11.4851 9.36149 11.6215C9.33436 11.7579 9.26739 11.8832 9.16906 11.9815C9.07073 12.0799 8.94544 12.1468 8.80905 12.174C8.67265 12.2011 8.53128 12.1872 8.4028 12.134C8.27432 12.0807 8.16451 11.9906 8.08725 11.875C8.00999 11.7594 7.96875 11.6234 7.96875 11.4844C7.96875 11.2979 8.04283 11.119 8.17469 10.9872C8.30655 10.8553 8.48539 10.7812 8.67188 10.7812ZM6.32812 8.43749C6.46719 8.43749 6.60313 8.47873 6.71876 8.55599C6.83439 8.63325 6.92451 8.74306 6.97773 8.87154C7.03095 9.00002 7.04487 9.14139 7.01774 9.27779C6.99061 9.41418 6.92364 9.53946 6.82531 9.6378C6.72698 9.73613 6.60169 9.8031 6.4653 9.83023C6.32891 9.85736 6.18753 9.84343 6.05905 9.79022C5.93057 9.737 5.82076 9.64688 5.7435 9.53125C5.66624 9.41562 5.625 9.27968 5.625 9.14061C5.625 8.95413 5.69908 8.77529 5.83094 8.64343C5.9628 8.51157 6.14164 8.43749 6.32812 8.43749ZM6.32812 10.7812C6.46719 10.7812 6.60313 10.8225 6.71876 10.8997C6.83439 10.977 6.92451 11.0868 6.97773 11.2153C7.03095 11.3438 7.04487 11.4851 7.01774 11.6215C6.99061 11.7579 6.92364 11.8832 6.82531 11.9815C6.72698 12.0799 6.60169 12.1468 6.4653 12.174C6.32891 12.2011 6.18753 12.1872 6.05905 12.134C5.93057 12.0807 5.82076 11.9906 5.7435 11.875C5.66624 11.7594 5.625 11.6234 5.625 11.4844C5.625 11.2979 5.69908 11.119 5.83094 10.9872C5.9628 10.8553 6.14164 10.7812 6.32812 10.7812ZM3.98438 8.43749C4.12344 8.43749 4.25938 8.47873 4.37501 8.55599C4.49064 8.63325 4.58076 8.74306 4.63398 8.87154C4.6872 9.00002 4.70112 9.14139 4.67399 9.27779C4.64686 9.41418 4.57989 9.53946 4.48156 9.6378C4.38323 9.73613 4.25794 9.8031 4.12155 9.83023C3.98516 9.85736 3.84378 9.84343 3.7153 9.79022C3.58682 9.737 3.47701 9.64688 3.39975 9.53125C3.32249 9.41562 3.28125 9.27968 3.28125 9.14061C3.28125 8.95413 3.35533 8.77529 3.48719 8.64343C3.61905 8.51157 3.79789 8.43749 3.98438 8.43749ZM3.98438 10.7812C4.12344 10.7812 4.25938 10.8225 4.37501 10.8997C4.49064 10.977 4.58076 11.0868 4.63398 11.2153C4.6872 11.3438 4.70112 11.4851 4.67399 11.6215C4.64686 11.7579 4.57989 11.8832 4.48156 11.9815C4.38323 12.0799 4.25794 12.1468 4.12155 12.174C3.98516 12.2011 3.84378 12.1872 3.7153 12.134C3.58682 12.0807 3.47701 11.9906 3.39975 11.875C3.32249 11.7594 3.28125 11.6234 3.28125 11.4844C3.28125 11.2979 3.35533 11.119 3.48719 10.9872C3.61905 10.8553 3.79789 10.7812 3.98438 10.7812Z" fill="white"/>
</g>
<defs>
<clipPath id="clip0_135_465">
<rect width="15" height="15" fill="white"/>
</clipPath>
</defs>
</svg>
