<svg width="15" height="15" viewBox="0 0 15 15" fill="none" xmlns="http://www.w3.org/2000/svg">
<g clip-path="url(#clip0_23_70)">
<path d="M14.0625 3.74996C14.0625 3.25268 13.865 2.77576 13.5133 2.42413C13.1617 2.0725 12.6848 1.87496 12.1875 1.87496H11.7188V1.41939C11.7188 1.16714 11.5248 0.950641 11.2726 0.938043C11.2092 0.934989 11.1458 0.944835 11.0864 0.966984C11.0269 0.989133 10.9726 1.02312 10.9266 1.0669C10.8807 1.11067 10.8441 1.16331 10.8191 1.22164C10.7941 1.27996 10.7813 1.34275 10.7812 1.40621V1.87496H4.21875V1.41939C4.21875 1.16714 4.0248 0.950641 3.77256 0.938043C3.70918 0.934989 3.64584 0.944835 3.58638 0.966984C3.52692 0.989133 3.47257 1.02312 3.42663 1.0669C3.3807 1.11067 3.34412 1.16331 3.31913 1.22164C3.29414 1.27996 3.28126 1.34275 3.28125 1.40621V1.87496H2.8125C2.31522 1.87496 1.83831 2.0725 1.48667 2.42413C1.13504 2.77576 0.9375 3.25268 0.9375 3.74996V4.10152C0.9375 4.1326 0.949847 4.16241 0.971823 4.18438C0.9938 4.20636 1.02361 4.21871 1.05469 4.21871H13.9453C13.9764 4.21871 14.0062 4.20636 14.0282 4.18438C14.0502 4.16241 14.0625 4.1326 14.0625 4.10152V3.74996ZM0.9375 12.1875C0.9375 12.6847 1.13504 13.1617 1.48667 13.5133C1.83831 13.8649 2.31522 14.0625 2.8125 14.0625H12.1875C12.6848 14.0625 13.1617 13.8649 13.5133 13.5133C13.865 13.1617 14.0625 12.6847 14.0625 12.1875V5.2441C14.0625 5.22079 14.0532 5.19843 14.0368 5.18195C14.0203 5.16547 13.9979 5.15621 13.9746 5.15621H1.02539C1.00208 5.15621 0.979725 5.16547 0.963243 5.18195C0.94676 5.19843 0.9375 5.22079 0.9375 5.2441V12.1875ZM11.0156 6.09371C11.1547 6.09371 11.2906 6.13494 11.4063 6.21221C11.5219 6.28947 11.612 6.39928 11.6652 6.52776C11.7184 6.65624 11.7324 6.79761 11.7052 6.93401C11.6781 7.0704 11.6111 7.19568 11.5128 7.29402C11.4145 7.39235 11.2892 7.45932 11.1528 7.48645C11.0164 7.51358 10.875 7.49965 10.7466 7.44644C10.6181 7.39322 10.5083 7.3031 10.431 7.18747C10.3537 7.07184 10.3125 6.9359 10.3125 6.79683C10.3125 6.61035 10.3866 6.43151 10.5184 6.29965C10.6503 6.16779 10.8291 6.09371 11.0156 6.09371ZM11.0156 8.43746C11.1547 8.43746 11.2906 8.4787 11.4063 8.55596C11.5219 8.63322 11.612 8.74303 11.6652 8.87151C11.7184 8.99999 11.7324 9.14136 11.7052 9.27776C11.6781 9.41415 11.6111 9.53943 11.5128 9.63777C11.4145 9.7361 11.2892 9.80307 11.1528 9.8302C11.0164 9.85733 10.875 9.8434 10.7466 9.79019C10.6181 9.73697 10.5083 9.64685 10.431 9.53122C10.3537 9.41559 10.3125 9.27965 10.3125 9.14058C10.3125 8.9541 10.3866 8.77526 10.5184 8.6434C10.6503 8.51154 10.8291 8.43746 11.0156 8.43746ZM8.67188 6.09371C8.81094 6.09371 8.94688 6.13494 9.06251 6.21221C9.17814 6.28947 9.26826 6.39928 9.32148 6.52776C9.3747 6.65624 9.38862 6.79761 9.36149 6.93401C9.33436 7.0704 9.26739 7.19568 9.16906 7.29402C9.07073 7.39235 8.94544 7.45932 8.80905 7.48645C8.67265 7.51358 8.53128 7.49965 8.4028 7.44644C8.27432 7.39322 8.16451 7.3031 8.08725 7.18747C8.00999 7.07184 7.96875 6.9359 7.96875 6.79683C7.96875 6.61035 8.04283 6.43151 8.17469 6.29965C8.30655 6.16779 8.48539 6.09371 8.67188 6.09371ZM8.67188 8.43746C8.81094 8.43746 8.94688 8.4787 9.06251 8.55596C9.17814 8.63322 9.26826 8.74303 9.32148 8.87151C9.3747 8.99999 9.38862 9.14136 9.36149 9.27776C9.33436 9.41415 9.26739 9.53943 9.16906 9.63777C9.07073 9.7361 8.94544 9.80307 8.80905 9.8302C8.67265 9.85733 8.53128 9.8434 8.4028 9.79019C8.27432 9.73697 8.16451 9.64685 8.08725 9.53122C8.00999 9.41559 7.96875 9.27965 7.96875 9.14058C7.96875 8.9541 8.04283 8.77526 8.17469 8.6434C8.30655 8.51154 8.48539 8.43746 8.67188 8.43746ZM8.67188 10.7812C8.81094 10.7812 8.94688 10.8224 9.06251 10.8997C9.17814 10.977 9.26826 11.0868 9.32148 11.2153C9.3747 11.3437 9.38862 11.4851 9.36149 11.6215C9.33436 11.7579 9.26739 11.8832 9.16906 11.9815C9.07073 12.0799 8.94544 12.1468 8.80905 12.1739C8.67265 12.2011 8.53128 12.1872 8.4028 12.1339C8.27432 12.0807 8.16451 11.9906 8.08725 11.875C8.00999 11.7593 7.96875 11.6234 7.96875 11.4843C7.96875 11.2979 8.04283 11.119 8.17469 10.9871C8.30655 10.8553 8.48539 10.7812 8.67188 10.7812ZM6.32812 8.43746C6.46719 8.43746 6.60313 8.4787 6.71876 8.55596C6.83439 8.63322 6.92451 8.74303 6.97773 8.87151C7.03095 8.99999 7.04487 9.14136 7.01774 9.27776C6.99061 9.41415 6.92364 9.53943 6.82531 9.63777C6.72698 9.7361 6.60169 9.80307 6.4653 9.8302C6.32891 9.85733 6.18753 9.8434 6.05905 9.79019C5.93057 9.73697 5.82076 9.64685 5.7435 9.53122C5.66624 9.41559 5.625 9.27965 5.625 9.14058C5.625 8.9541 5.69908 8.77526 5.83094 8.6434C5.9628 8.51154 6.14164 8.43746 6.32812 8.43746ZM6.32812 10.7812C6.46719 10.7812 6.60313 10.8224 6.71876 10.8997C6.83439 10.977 6.92451 11.0868 6.97773 11.2153C7.03095 11.3437 7.04487 11.4851 7.01774 11.6215C6.99061 11.7579 6.92364 11.8832 6.82531 11.9815C6.72698 12.0799 6.60169 12.1468 6.4653 12.1739C6.32891 12.2011 6.18753 12.1872 6.05905 12.1339C5.93057 12.0807 5.82076 11.9906 5.7435 11.875C5.66624 11.7593 5.625 11.6234 5.625 11.4843C5.625 11.2979 5.69908 11.119 5.83094 10.9871C5.9628 10.8553 6.14164 10.7812 6.32812 10.7812ZM3.98438 8.43746C4.12344 8.43746 4.25938 8.4787 4.37501 8.55596C4.49064 8.63322 4.58076 8.74303 4.63398 8.87151C4.6872 8.99999 4.70112 9.14136 4.67399 9.27776C4.64686 9.41415 4.57989 9.53943 4.48156 9.63777C4.38323 9.7361 4.25794 9.80307 4.12155 9.8302C3.98516 9.85733 3.84378 9.8434 3.7153 9.79019C3.58682 9.73697 3.47701 9.64685 3.39975 9.53122C3.32249 9.41559 3.28125 9.27965 3.28125 9.14058C3.28125 8.9541 3.35533 8.77526 3.48719 8.6434C3.61905 8.51154 3.79789 8.43746 3.98438 8.43746ZM3.98438 10.7812C4.12344 10.7812 4.25938 10.8224 4.37501 10.8997C4.49064 10.977 4.58076 11.0868 4.63398 11.2153C4.6872 11.3437 4.70112 11.4851 4.67399 11.6215C4.64686 11.7579 4.57989 11.8832 4.48156 11.9815C4.38323 12.0799 4.25794 12.1468 4.12155 12.1739C3.98516 12.2011 3.84378 12.1872 3.7153 12.1339C3.58682 12.0807 3.47701 11.9906 3.39975 11.875C3.32249 11.7593 3.28125 11.6234 3.28125 11.4843C3.28125 11.2979 3.35533 11.119 3.48719 10.9871C3.61905 10.8553 3.79789 10.7812 3.98438 10.7812Z" fill="white"/>
</g>
<defs>
<clipPath id="clip0_23_70">
<rect width="15" height="15" fill="white"/>
</clipPath>
</defs>
</svg>
