<svg width="25" height="25" viewBox="0 0 25 25" fill="none" xmlns="http://www.w3.org/2000/svg">
<g clip-path="url(#clip0_401_595)">
<path d="M24.1758 7.62407C24.1758 5.51469 22.6242 3.81782 20.707 3.81782C18.1102 3.69641 15.4617 3.64954 12.7552 3.64954H11.9114C9.21142 3.64954 6.55829 3.69641 3.96142 3.81829C2.04892 3.81829 0.497355 5.52454 0.497355 7.63391C0.380168 9.30219 0.33048 10.9709 0.333293 12.6397C0.328605 14.3084 0.38173 15.9788 0.492668 17.6506C0.492668 19.76 2.04423 21.4709 3.95673 21.4709C6.68486 21.5975 9.48329 21.6538 12.3286 21.6491C15.1786 21.6584 17.9692 21.5991 20.7005 21.4709C22.6177 21.4709 24.1692 19.76 24.1692 17.6506C24.2817 15.9772 24.3333 14.3084 24.3286 12.635C24.3392 10.9663 24.2883 9.29594 24.1758 7.62407ZM10.0364 17.2381V8.02719L16.8333 12.6303L10.0364 17.2381Z" fill="#272727"/>
</g>
<defs>
<clipPath id="clip0_401_595">
<rect width="24" height="24" fill="white" transform="translate(0.333252 0.649536)"/>
</clipPath>
</defs>
</svg>
