<svg width="15" height="15" viewBox="0 0 15 15" fill="none" xmlns="http://www.w3.org/2000/svg">
<path d="M7.58498 1.40621C4.15783 1.35992 1.35998 4.15777 1.40627 7.58492C1.45197 10.8717 4.12824 13.548 7.41506 13.5937C10.8428 13.6406 13.6401 10.8427 13.5932 7.41558C13.5481 4.12818 10.8718 1.45191 7.58498 1.40621ZM11.2887 10.9936C11.277 11.0062 11.2627 11.0161 11.2468 11.0226C11.2309 11.0291 11.2137 11.032 11.1966 11.0311C11.1794 11.0302 11.1626 11.0255 11.1475 11.0174C11.1323 11.0093 11.1191 10.998 11.1088 10.9842C10.8468 10.6414 10.5258 10.3479 10.1611 10.1173C9.41515 9.63863 8.47004 9.37496 7.50002 9.37496C6.53 9.37496 5.58488 9.63863 4.83898 10.1173C4.4742 10.3478 4.15329 10.6412 3.89123 10.9839C3.88093 10.9977 3.86774 11.009 3.85257 11.0171C3.83741 11.0252 3.82065 11.0299 3.80348 11.0308C3.78632 11.0317 3.76917 11.0288 3.75324 11.0223C3.73732 11.0158 3.72302 11.0059 3.71135 10.9933C2.85168 10.0653 2.36471 8.85268 2.34377 7.58785C2.29601 4.73697 4.63537 2.35074 7.48742 2.34371C10.3395 2.33667 12.6563 4.65259 12.6563 7.49996C12.6573 8.79529 12.1688 10.0432 11.2887 10.9936Z" fill="white"/>
<path d="M7.49998 4.21875C6.92224 4.21875 6.39988 4.43525 6.02869 4.82871C5.6575 5.22217 5.47205 5.76621 5.51394 6.3501C5.5989 7.5 6.48982 8.4375 7.49998 8.4375C8.51013 8.4375 9.39929 7.5 9.48601 6.35039C9.52937 5.77207 9.34539 5.23301 8.96804 4.83223C8.59539 4.43672 8.0739 4.21875 7.49998 4.21875Z" fill="white"/>
</svg>
